<?xml version="1.0" standalone="no"?>
<!DOCTYPE svg PUBLIC "-//W3C//DTD SVG 20010904//EN"
 "http://www.w3.org/TR/2001/REC-SVG-20010904/DTD/svg10.dtd">
<svg version="1.0" xmlns="http://www.w3.org/2000/svg"
 width="400.000000pt" height="400.000000pt" viewBox="0 0 400.000000 400.000000"
 preserveAspectRatio="xMidYMid meet">

<g transform="translate(0.000000,400.000000) scale(0.100000,-0.100000)"
fill="#000000" stroke="none">
<path d="M3775 3935 c-447 -85 -1018 -292 -1448 -526 -386 -210 -671 -410
-965 -678 l-93 -85 -72 18 c-131 31 -255 41 -362 28 -53 -7 -104 -17 -114 -22
-9 -5 -173 -166 -365 -359 -307 -307 -345 -348 -309 -336 118 41 246 58 418
58 102 -1 196 -7 235 -15 l65 -14 -3 -38 c-6 -73 16 -134 69 -189 l48 -50 -78
-107 c-297 -401 -536 -863 -675 -1300 -25 -79 -46 -150 -46 -156 0 -13 217 48
419 118 383 131 818 359 1154 604 l37 27 28 -25 c53 -50 83 -62 161 -68 l75
-5 8 -35 c16 -71 21 -266 9 -367 -10 -86 -42 -228 -67 -298 -3 -11 153 139
349 334 l355 354 11 55 c17 85 13 264 -8 367 l-18 90 91 100 c458 504 796
1085 1036 1780 101 293 215 767 184 764 -5 0 -63 -11 -129 -24z m-44 -201
c-50 -207 -143 -499 -227 -712 -287 -726 -669 -1297 -1184 -1770 -266 -244
-402 -324 -481 -282 -41 22 -59 91 -79 295 -22 217 -57 325 -133 403 -86 89
-201 124 -487 147 -232 19 -282 73 -206 220 99 188 494 596 824 848 381 291
873 552 1375 731 244 87 597 184 605 166 1 -4 -2 -25 -7 -46z m-2666 -1195
c41 -6 75 -15 75 -18 0 -4 -14 -20 -31 -37 -78 -72 -219 -247 -293 -361 -1 -1
-38 4 -81 12 -44 8 -134 14 -200 15 l-120 0 192 192 c176 176 195 192 235 198
68 12 141 11 223 -1z m190 -879 c216 -24 287 -64 323 -182 18 -56 27 -124 47
-334 l6 -62 -63 -44 c-74 -52 -103 -68 -68 -39 l25 21 -132 -2 c-72 -2 -129 1
-126 5 3 4 -12 1 -32 -7 -21 -9 -39 -16 -42 -16 -2 0 -1 -5 3 -12 4 -7 3 -8
-5 -4 -6 4 -48 -7 -94 -25 -120 -46 -250 -90 -255 -85 -2 3 3 27 12 54 9 27
14 57 10 68 -5 16 -4 16 5 4 6 -8 11 -12 11 -8 0 3 2 12 5 20 4 10 -20 12
-129 10 -125 -3 -135 -5 -141 -23 -4 -11 -9 -18 -12 -15 -15 15 206 399 344
599 l71 104 64 -8 c34 -4 113 -13 173 -19z m1230 -566 c4 -40 4 -104 0 -141
l-7 -68 -192 -193 -191 -193 -6 138 c-4 76 -10 158 -14 183 l-7 45 76 52 c75
52 263 210 300 252 26 28 32 16 41 -75z m-1245 -94 c-8 -5 -19 -10 -25 -10 -5
0 -3 5 5 10 8 5 20 10 25 10 6 0 3 -5 -5 -10z"/>
<path d="M2593 2708 l-31 -31 -51 21 c-112 49 -219 12 -273 -92 -28 -55 -19
-110 38 -214 62 -116 60 -172 -6 -172 -54 0 -125 84 -149 176 l-11 41 -52 -10
c-29 -5 -57 -13 -62 -18 -12 -11 12 -106 40 -158 l25 -44 -33 -34 -32 -33 37
-37 37 -37 34 33 c23 23 36 29 41 21 14 -22 90 -50 138 -50 53 0 97 18 140 59
83 76 77 159 -22 321 -41 68 -15 141 46 125 40 -10 99 -77 120 -136 l18 -50
44 6 c70 11 73 13 66 54 -3 20 -19 63 -35 96 l-29 60 32 33 31 32 -35 35 -34
35 -32 -32z"/>
<path d="M1762 2539 c-41 -38 -55 -92 -56 -209 0 -161 51 -286 164 -400 178
-180 447 -221 671 -104 65 34 195 141 185 152 -3 2 -21 -9 -41 -27 -111 -97
-307 -143 -467 -110 -153 32 -321 162 -387 302 -57 120 -72 236 -47 357 8 36
13 66 12 67 -1 1 -16 -11 -34 -28z"/>
</g>
</svg>
